<?xml version="1.0" encoding="UTF-8"?>
<!DOCTYPE svg PUBLIC "-//W3C//DTD SVG 1.1//EN" "http://www.w3.org/Graphics/SVG/1.1/DTD/svg11.dtd">
<!-- Creator: CorelDRAW -->
<svg xmlns="http://www.w3.org/2000/svg" xml:space="preserve" width="32px" height="27px" version="1.1" style="shape-rendering:geometricPrecision; text-rendering:geometricPrecision; image-rendering:optimizeQuality; fill-rule:evenodd; clip-rule:evenodd"
viewBox="0 0 32 27.86"
 xmlns:xlink="http://www.w3.org/1999/xlink"
 xmlns:xodm="http://www.corel.com/coreldraw/odm/2003">
 <defs>
  <style type="text/css">
   <![CDATA[
    .fil1 {fill:white}
    .fil2 {fill:#B26B59;fill-rule:nonzero}
    .fil0 {fill:white;fill-rule:nonzero}
   ]]>
  </style>
 </defs>
 <g id="Слой_x0020_1">
  <metadata id="CorelCorpID_0Corel-Layer"/>
  <g>
   <path class="fil0" d="M31.03 15.2c-3.84,6.88 -15.03,11.69 -15.03,11.69 0,0 -11.19,-4.81 -15.03,-11.69 9.13,-19.57 3.37,-6.09 3.31,-5.99 -0.5,-0.35 -1.91,-1.36 -2.76,-2.84 -0.06,-0.09 -0.1,-0.19 -0.14,-0.29 -0.72,-1.72 0,-3.76 1.64,-4.65 1.79,-0.96 4.21,-0.39 4.93,1.36l0.03 0c2.61,-1.67 4.51,-1.89 7.32,-0.58l0.7 0.33 0.7 -0.33c2.81,-1.31 4.71,-1.09 7.32,0.58l0.03 0c0.72,-1.75 3.14,-2.32 4.93,-1.36 1.64,0.89 2.36,2.93 1.64,4.65 -0.04,0.1 -0.08,0.2 -0.14,0.29 -0.85,1.48 -2.26,2.49 -2.76,2.84 -0.07,-0.13 -5.81,-13.56 3.31,5.99z"/>
   <path id="_1" class="fil1" d="M31.88 15.67c-4.01,7.17 -15.45,12.09 -15.49,12.1 -0.26,0.12 -0.54,0.11 -0.78,0 -0.04,-0.01 -11.48,-4.93 -15.49,-12.1 -0.15,-0.28 -0.15,-0.61 -0.03,-0.88 0,0 0.01,-0.01 0.01,-0.01 1.06,-2.27 1.92,-4.1 2.61,-5.56 -0.1,-0.09 -0.22,-0.19 -0.33,-0.3 -0.58,-0.53 -1.21,-1.23 -1.7,-2.07 -0.02,-0.03 -0.03,-0.06 -0.05,-0.09l-0.04 -0.08c-0.01,-0.03 -0.02,-0.05 -0.03,-0.07l0 0.01 -0.07 -0.15c0,0 0,-0.01 0,-0.02 -0.46,-1.09 -0.46,-2.28 -0.09,-3.33 0.38,-1.05 1.13,-1.98 2.17,-2.54 0.13,-0.07 0.28,-0.14 0.44,-0.21 1.02,-0.42 2.17,-0.47 3.18,-0.19 0.81,0.22 1.55,0.66 2.09,1.31 1.11,-0.62 2.14,-0.98 3.2,-1.07 1.33,-0.11 2.66,0.19 4.22,0.92l0.3 0.14 0.3 -0.14c1.56,-0.73 2.89,-1.03 4.22,-0.92 0.01,0 0.02,0 0.03,0 1.05,0.1 2.07,0.46 3.17,1.07 0.54,-0.64 1.27,-1.09 2.09,-1.31 0.02,-0.01 0.04,-0.01 0.06,-0.02 0.99,-0.26 2.12,-0.2 3.12,0.21 0.16,0.07 0.31,0.14 0.44,0.21 1.04,0.56 1.79,1.49 2.17,2.54 0.37,1.05 0.37,2.24 -0.09,3.33 0,0.02 -0.01,0.04 -0.02,0.05l-0.05 0.12c-0.02,0.04 -0.04,0.08 -0.06,0.12l-0.04 0.08c-0.01,0.01 -0.02,0.02 -0.02,0.03l0 0c-0.49,0.84 -1.12,1.54 -1.7,2.07 -0.11,0.11 -0.23,0.21 -0.33,0.3 0.69,1.46 1.55,3.29 2.62,5.57 0.13,0.29 0.11,0.62 -0.03,0.88l0 0zm-27.97 -6.73c4.73,-9.9 0.42,0.18 0.37,0.27 -0.1,-0.07 -0.22,-0.16 -0.37,-0.27zm0 0c-0.64,-0.47 -1.7,-1.36 -2.39,-2.57 -0.06,-0.09 -0.1,-0.19 -0.14,-0.29 -0.72,-1.72 0,-3.76 1.64,-4.65 1.79,-0.96 4.21,-0.39 4.93,1.36l0.03 0c2.61,-1.67 4.51,-1.89 7.32,-0.58l0.7 0.33 0.7 -0.33c2.81,-1.31 4.71,-1.09 7.32,0.58l0.03 0c0.72,-1.75 3.14,-2.32 4.93,-1.36 1.64,0.89 2.36,2.93 1.64,4.65 -0.04,0.1 -0.08,0.2 -0.14,0.29 -0.69,1.21 -1.75,2.1 -2.39,2.57 0.74,1.56 1.7,3.6 2.94,6.26 -3.84,6.88 -15.03,11.69 -15.03,11.69 0,0 -11.19,-4.81 -15.03,-11.69 1.24,-2.66 2.2,-4.7 2.94,-6.26zm24.18 0c-0.15,0.11 -0.27,0.2 -0.37,0.27 -0.06,-0.11 -4.36,-10.15 0.37,-0.27z"/>
  </g>
  <path class="fil2" d="M26.2 3.87c0.58,-0.38 1.11,-0.35 1.32,-0.16 0.31,0.3 -0.59,1.2 -0.59,1.2 0,0 0.59,-0.19 0.69,0.11 0.11,0.29 -0.99,0.74 -0.6,1.58l0 0 4.01 8.6c-3.84,6.88 -15.03,11.69 -15.03,11.69 0,0 -11.19,-4.81 -15.03,-11.69l4.01 -8.6 0 0c0.39,-0.84 -0.71,-1.29 -0.6,-1.58 0.1,-0.3 0.69,-0.11 0.69,-0.11 0,0 -0.9,-0.9 -0.59,-1.2 0.21,-0.19 0.74,-0.22 1.32,0.16 -0.73,-0.94 -2.42,-0.95 -2.67,0.49 -0.17,0.98 1.18,2.29 1.99,2.81 0,0 -0.58,1.61 -0.84,2.04 -0.5,-0.35 -1.91,-1.36 -2.76,-2.84 -0.06,-0.09 -0.1,-0.19 -0.14,-0.29 -0.72,-1.72 0,-3.76 1.64,-4.65 1.79,-0.96 4.21,-0.39 4.93,1.36l0.03 0c2.61,-1.67 4.51,-1.89 7.32,-0.58l0.7 0.33 0.7 -0.33c2.81,-1.31 4.71,-1.09 7.32,0.58l0.03 0c0.72,-1.75 3.14,-2.32 4.93,-1.36 1.64,0.89 2.36,2.93 1.64,4.65 -0.04,0.1 -0.08,0.2 -0.14,0.29 -0.85,1.48 -2.26,2.49 -2.76,2.84 -0.26,-0.43 -0.84,-2.04 -0.84,-2.04 0.81,-0.52 2.16,-1.83 1.99,-2.81 -0.25,-1.44 -1.94,-1.43 -2.67,-0.49zm-10.2 4.98c-2.51,0 -3.45,3.03 -3.3,5.06 0.09,1.16 0.41,2.29 0.73,3.41 0.09,0.34 0.19,0.68 0.41,0.95 0.22,0.27 0.59,0.45 0.92,0.34 0.33,-0.11 0.51,-0.47 0.52,-0.82 0.01,-0.4 -0.21,-0.84 -0.35,-1.21 -0.22,-0.61 -0.49,-1.2 -0.7,-1.81 -0.15,-0.46 -0.23,-1.06 0.33,-1.24 0.5,-0.16 0.63,0.29 1.44,0.29 0.81,0 0.94,-0.45 1.44,-0.29 0.56,0.18 0.48,0.78 0.33,1.24 -0.21,0.61 -0.48,1.2 -0.7,1.81 -0.14,0.37 -0.36,0.81 -0.35,1.21 0.01,0.35 0.19,0.71 0.52,0.82 0.33,0.11 0.7,-0.07 0.92,-0.34 0.22,-0.27 0.32,-0.61 0.41,-0.95 0.32,-1.12 0.64,-2.25 0.73,-3.41 0.15,-2.03 -0.79,-5.06 -3.3,-5.06zm4.15 0.37c0,0.69 0.56,0.28 1.25,0.28 0.69,0 1.25,0.41 1.25,-0.28 0,-0.69 -0.56,-1.25 -1.25,-1.25 -0.69,0 -1.25,0.56 -1.25,1.25zm-8.3 0c0,-0.69 -0.56,-1.25 -1.25,-1.25 -0.69,0 -1.25,0.56 -1.25,1.25 0,0.69 0.56,0.28 1.25,0.28 0.69,0 1.25,0.41 1.25,-0.28z"/>
  <path class="fil2" d="M13.64 15.67c-0.01,-0.07 -0.07,-0.12 -0.15,-0.11 -0.08,0.01 -0.13,0.07 -0.12,0.15 0.01,0.08 0.08,0.13 0.16,0.12 0.07,-0.01 0.12,-0.08 0.11,-0.16zm0.62 0.58c-0.01,-0.07 -0.08,-0.12 -0.16,-0.11 -0.07,0 -0.12,0.07 -0.12,0.15 0.01,0.07 0.08,0.13 0.16,0.12 0.07,-0.01 0.13,-0.08 0.12,-0.16zm-0.67 0.09c-0.01,-0.08 -0.08,-0.13 -0.15,-0.12 -0.08,0.01 -0.13,0.08 -0.12,0.15 0.01,0.08 0.08,0.13 0.15,0.12 0.08,-0.01 0.13,-0.08 0.12,-0.15zm1.19 0.57c-0.01,-0.12 -0.12,-0.2 -0.24,-0.19 -0.12,0.02 -0.21,0.13 -0.19,0.25 0.02,0.11 0.12,0.2 0.24,0.18 0.12,-0.01 0.21,-0.12 0.19,-0.24zm-0.73 0.09c-0.02,-0.11 -0.13,-0.2 -0.25,-0.18 -0.11,0.01 -0.2,0.12 -0.18,0.24 0.01,0.12 0.12,0.2 0.24,0.19 0.12,-0.02 0.2,-0.13 0.19,-0.25zm0.16 1.22c-0.17,0.02 -0.32,-0.09 -0.34,-0.26 -0.03,-0.17 0.09,-0.32 0.26,-0.34 0.16,-0.02 0.32,0.09 0.34,0.26 0.02,0.17 -0.1,0.32 -0.26,0.34z"/>
  <path class="fil2" d="M18.4 15.83c0.08,0.01 0.15,-0.04 0.16,-0.12 0.01,-0.08 -0.05,-0.14 -0.12,-0.15 -0.08,-0.01 -0.15,0.04 -0.16,0.11 -0.01,0.08 0.05,0.15 0.12,0.16zm-0.61 0.58c0.07,0.01 0.14,-0.05 0.15,-0.12 0.01,-0.08 -0.04,-0.15 -0.12,-0.15 -0.07,-0.01 -0.14,0.04 -0.15,0.11 -0.01,0.08 0.04,0.15 0.12,0.16zm0.66 0.08c0.08,0.01 0.15,-0.04 0.16,-0.12 0.01,-0.07 -0.05,-0.14 -0.12,-0.15 -0.07,-0.01 -0.14,0.04 -0.15,0.12 -0.01,0.07 0.04,0.14 0.11,0.15zm-1.11 0.66c0.11,0.02 0.22,-0.07 0.24,-0.18 0.01,-0.12 -0.07,-0.23 -0.19,-0.25 -0.12,-0.01 -0.23,0.07 -0.24,0.19 -0.02,0.12 0.07,0.23 0.19,0.24zm0.73 0.1c0.12,0.01 0.23,-0.07 0.24,-0.19 0.02,-0.12 -0.07,-0.23 -0.19,-0.24 -0.12,-0.02 -0.22,0.07 -0.24,0.18 -0.02,0.12 0.07,0.23 0.19,0.25zm-0.61 0.63c0.02,-0.17 0.17,-0.28 0.34,-0.26 0.17,0.02 0.28,0.17 0.26,0.34 -0.02,0.17 -0.17,0.28 -0.34,0.26 -0.16,-0.02 -0.28,-0.17 -0.26,-0.34z"/>
 </g>
</svg>
