<?xml version="1.0" encoding="UTF-8"?>
<!DOCTYPE svg PUBLIC "-//W3C//DTD SVG 1.1//EN" "http://www.w3.org/Graphics/SVG/1.1/DTD/svg11.dtd">
<!-- Creator: CorelDRAW -->
<svg xmlns="http://www.w3.org/2000/svg" xml:space="preserve" width="60px" height="70px" version="1.1" style="shape-rendering:geometricPrecision; text-rendering:geometricPrecision; image-rendering:optimizeQuality; fill-rule:evenodd; clip-rule:evenodd"
viewBox="0 0 60 70"
 xmlns:xlink="http://www.w3.org/1999/xlink"
 xmlns:xodm="http://www.corel.com/coreldraw/odm/2003">
 <defs>
  <style type="text/css">
   <![CDATA[
    .fil1 {fill:black;fill-rule:nonzero}
    .fil0 {fill:black;fill-rule:nonzero}
   ]]>
  </style>
 </defs>
 <g id="Слой_x0020_1">
  <metadata id="CorelCorpID_0Corel-Layer"/>
  <path class="fil0" d="M50.36 5.79c1.15,-0.75 2.22,-0.69 2.63,-0.31 0.62,0.59 -1.18,2.39 -1.18,2.39 0,0 1.18,-0.38 1.38,0.21 0.21,0.59 -1.98,1.48 -1.2,3.16l8.01 17.16c-7.67,13.74 -30,23.33 -30,23.33 0,0 -22.33,-9.59 -30,-23.33l8.01 -17.16c0.78,-1.68 -1.41,-2.57 -1.2,-3.16 0.2,-0.59 1.38,-0.21 1.38,-0.21 0,0 -1.8,-1.8 -1.18,-2.39 0.41,-0.38 1.48,-0.44 2.63,0.31 -1.46,-1.88 -4.82,-1.89 -5.32,0.97 -0.35,1.97 2.35,4.59 3.97,5.61 0,0 -1.16,3.22 -1.68,4.07 -1,-0.7 -3.8,-2.7 -5.51,-5.66 -0.11,-0.18 -0.19,-0.37 -0.28,-0.57 -1.43,-3.44 0,-7.51 3.29,-9.28 3.56,-1.92 8.38,-0.79 9.83,2.71l0.05 0c5.21,-3.34 9,-3.77 14.61,-1.15l1.4 0.66 1.4 -0.66c5.61,-2.62 9.4,-2.19 14.61,1.15l0.05 0c1.45,-3.5 6.27,-4.63 9.83,-2.71 3.29,1.77 4.72,5.84 3.29,9.28 -0.09,0.2 -0.17,0.39 -0.28,0.57 -1.71,2.96 -4.51,4.96 -5.51,5.66 -0.52,-0.85 -1.68,-4.07 -1.68,-4.07 1.62,-1.02 4.32,-3.64 3.97,-5.61 -0.5,-2.86 -3.86,-2.85 -5.32,-0.97zm-15.57 23.87c0.15,0.02 0.29,-0.09 0.31,-0.24 0.02,-0.15 -0.09,-0.29 -0.23,-0.31 -0.16,-0.01 -0.29,0.09 -0.31,0.24 -0.02,0.15 0.08,0.29 0.23,0.31zm-1.22 1.15c0.15,0.02 0.29,-0.09 0.31,-0.24 0.02,-0.15 -0.09,-0.28 -0.24,-0.3 -0.15,-0.02 -0.28,0.08 -0.3,0.23 -0.03,0.15 0.08,0.29 0.23,0.31zm1.33 0.17c0.15,0.02 0.29,-0.08 0.3,-0.23 0.02,-0.15 -0.08,-0.29 -0.23,-0.31 -0.15,-0.02 -0.29,0.09 -0.31,0.24 -0.02,0.15 0.09,0.28 0.24,0.3zm-2.24 1.32c0.24,0.03 0.46,-0.14 0.49,-0.38 0.03,-0.23 -0.14,-0.45 -0.37,-0.48 -0.24,-0.03 -0.46,0.13 -0.49,0.37 -0.03,0.24 0.14,0.46 0.37,0.49zm1.47 0.19c0.23,0.03 0.45,-0.14 0.48,-0.38 0.03,-0.23 -0.13,-0.45 -0.37,-0.48 -0.24,-0.03 -0.46,0.14 -0.49,0.37 -0.03,0.24 0.14,0.46 0.38,0.49zm-1.22 1.26c0.05,-0.33 0.35,-0.56 0.68,-0.52 0.34,0.05 0.57,0.35 0.53,0.68 -0.05,0.33 -0.35,0.57 -0.69,0.52 -0.33,-0.04 -0.56,-0.34 -0.52,-0.68zm-7.61 -4.4c-0.02,-0.15 -0.16,-0.25 -0.31,-0.24 -0.15,0.02 -0.25,0.16 -0.23,0.31 0.02,0.15 0.15,0.26 0.3,0.24 0.15,-0.02 0.26,-0.16 0.24,-0.31zm1.22 1.15c-0.02,-0.15 -0.15,-0.25 -0.31,-0.23 -0.15,0.02 -0.25,0.15 -0.23,0.3 0.02,0.15 0.16,0.26 0.3,0.24 0.15,-0.02 0.26,-0.16 0.24,-0.31zm-1.33 0.18c-0.01,-0.15 -0.15,-0.26 -0.3,-0.24 -0.15,0.02 -0.26,0.16 -0.24,0.31 0.02,0.15 0.16,0.25 0.31,0.23 0.15,-0.02 0.25,-0.15 0.23,-0.3zm2.38 1.13c-0.03,-0.24 -0.25,-0.4 -0.49,-0.37 -0.24,0.03 -0.4,0.25 -0.37,0.48 0.03,0.24 0.25,0.41 0.48,0.38 0.24,-0.03 0.41,-0.25 0.38,-0.49zm-1.47 0.19c-0.03,-0.23 -0.24,-0.4 -0.48,-0.37 -0.24,0.03 -0.41,0.25 -0.38,0.48 0.04,0.24 0.25,0.41 0.49,0.38 0.24,-0.03 0.41,-0.25 0.37,-0.49zm0.32 2.43c-0.33,0.05 -0.64,-0.19 -0.68,-0.52 -0.04,-0.33 0.19,-0.63 0.53,-0.68 0.33,-0.04 0.63,0.19 0.67,0.52 0.05,0.34 -0.19,0.64 -0.52,0.68zm3.58 -18.7c-5.01,0 -6.89,6.05 -6.58,10.1 0.18,2.32 0.82,4.57 1.45,6.81 0.19,0.66 0.39,1.35 0.82,1.89 0.44,0.54 1.18,0.89 1.84,0.67 0.65,-0.22 1.02,-0.94 1.03,-1.62 0.02,-0.81 -0.42,-1.68 -0.7,-2.43 -0.44,-1.21 -0.98,-2.38 -1.39,-3.61 -0.31,-0.91 -0.47,-2.11 0.66,-2.48 0.99,-0.32 1.26,0.59 2.87,0.59 1.61,0 1.88,-0.91 2.87,-0.59 1.13,0.37 0.97,1.57 0.66,2.48 -0.41,1.23 -0.95,2.4 -1.39,3.61 -0.28,0.75 -0.72,1.62 -0.7,2.43 0.01,0.68 0.38,1.4 1.03,1.62 0.66,0.22 1.4,-0.13 1.84,-0.67 0.43,-0.54 0.63,-1.23 0.82,-1.89 0.63,-2.24 1.27,-4.49 1.45,-6.81 0.31,-4.05 -1.57,-10.1 -6.58,-10.1zm8.28 0.74c0,1.37 1.12,0.57 2.5,0.57 1.37,0 2.49,0.8 2.49,-0.57 0,-1.37 -1.12,-2.49 -2.49,-2.49 -1.38,0 -2.5,1.12 -2.5,2.49zm-16.56 0c0,-1.37 -1.12,-2.49 -2.5,-2.49 -1.37,0 -2.49,1.12 -2.49,2.49 0,1.37 1.12,0.57 2.49,0.57 1.38,0 2.5,0.8 2.5,-0.57z"/>
  <path class="fil1" d="M25.26 54.23l-5.16 15.77 -3.92 0 -3.47 -10.68 -3.58 10.68 -3.89 0 -5.18 -15.77 3.78 0 3.56 11.08 3.72 -11.08 3.37 0 3.61 11.17 3.67 -11.17 3.49 0zm16.49 0l0 15.77 -3.65 0 0 -6.46 -7.16 0 0 6.46 -3.65 0 0 -15.77 3.65 0 0 6.22 7.16 0 0 -6.22 3.65 0zm18.2 0l0 15.77 -3.65 0 0 -6.46 -7.17 0 0 6.46 -3.64 0 0 -15.77 3.64 0 0 6.22 7.17 0 0 -6.22 3.65 0z"/>
 </g>
</svg>
